<svg width="78" height="78" viewBox="0 0 78 78" fill="none" xmlns="http://www.w3.org/2000/svg">
<path d="M52.9749 13.845C52.7131 13.836 52.458 13.9294 52.2638 14.1054C52.0697 14.2813 51.9517 14.526 51.9349 14.7875C51.7035 16.7609 50.7542 18.5803 49.2678 19.8988C47.7814 21.2174 45.8619 21.9431 43.8749 21.9375H34.1249C32.1268 21.9591 30.1914 21.2407 28.6913 19.9206C27.1912 18.6006 26.2325 16.7722 25.9999 14.7875C25.9832 14.526 25.8652 14.2813 25.6711 14.1054C25.4769 13.9294 25.2218 13.836 24.9599 13.845C22.5466 14.0875 20.3103 15.2209 18.6877 17.0237C17.0651 18.8266 16.1728 21.1695 16.1849 23.595V59.345C16.1849 61.9309 17.2122 64.4108 19.0406 66.2393C20.8691 68.0678 23.3491 69.095 25.9349 69.095H51.9349C54.5208 69.095 57.0007 68.0678 58.8292 66.2393C60.6577 64.4108 61.6849 61.9309 61.6849 59.345V23.595C61.6987 21.1796 60.8154 18.8451 59.2063 17.0438C57.5971 15.2425 55.3766 14.1026 52.9749 13.845ZM40.9499 54.4375H29.2499C28.6035 54.4375 27.9835 54.1807 27.5264 53.7236C27.0692 53.2665 26.8124 52.6465 26.8124 52C26.8124 51.3535 27.0692 50.7336 27.5264 50.2764C27.9835 49.8193 28.6035 49.5625 29.2499 49.5625H40.9499C41.5964 49.5625 42.2164 49.8193 42.6735 50.2764C43.1306 50.7336 43.3874 51.3535 43.3874 52C43.3874 52.6465 43.1306 53.2665 42.6735 53.7236C42.2164 54.1807 41.5964 54.4375 40.9499 54.4375ZM48.7499 44.6875H29.2499C28.6035 44.6875 27.9835 44.4307 27.5264 43.9736C27.0692 43.5165 26.8124 42.8965 26.8124 42.25C26.8124 41.6035 27.0692 40.9836 27.5264 40.5264C27.9835 40.0693 28.6035 39.8125 29.2499 39.8125H48.7499C49.3964 39.8125 50.0164 40.0693 50.4735 40.5264C50.9306 40.9836 51.1874 41.6035 51.1874 42.25C51.1874 42.8965 50.9306 43.5165 50.4735 43.9736C50.0164 44.4307 49.3964 44.6875 48.7499 44.6875ZM48.7499 34.9375H29.2499C28.6035 34.9375 27.9835 34.6807 27.5264 34.2236C27.0692 33.7665 26.8124 33.1465 26.8124 32.5C26.8124 31.8535 27.0692 31.2336 27.5264 30.7764C27.9835 30.3193 28.6035 30.0625 29.2499 30.0625H48.7499C49.3964 30.0625 50.0164 30.3193 50.4735 30.7764C50.9306 31.2336 51.1874 31.8535 51.1874 32.5C51.1874 33.1465 50.9306 33.7665 50.4735 34.2236C50.0164 34.6807 49.3964 34.9375 48.7499 34.9375Z" fill="#000D26"/>
<path d="M34.125 18.6875H43.875C45.1679 18.6875 46.4079 18.1739 47.3221 17.2596C48.2364 16.3454 48.75 15.1054 48.75 13.8125C48.75 12.5196 48.2364 11.2796 47.3221 10.3654C46.4079 9.45111 45.1679 8.9375 43.875 8.9375H34.125C32.8321 8.9375 31.5921 9.45111 30.6779 10.3654C29.7636 11.2796 29.25 12.5196 29.25 13.8125C29.25 15.1054 29.7636 16.3454 30.6779 17.2596C31.5921 18.1739 32.8321 18.6875 34.125 18.6875Z" fill="#000D26"/>
</svg>
