<svg width="78" height="78" viewBox="0 0 78 78" fill="none" xmlns="http://www.w3.org/2000/svg">
<path d="M50.2126 26H59.9626C60.0448 26.0077 60.1273 25.9892 60.1983 25.947C60.2692 25.9048 60.325 25.8412 60.3575 25.7653C60.3901 25.6895 60.3977 25.6052 60.3792 25.5247C60.3608 25.4443 60.3174 25.3717 60.2551 25.3175L46.9626 11.9275C46.9029 11.8804 46.8316 11.8503 46.7563 11.8403C46.6809 11.8303 46.6042 11.8408 46.5343 11.8708C46.4645 11.9007 46.4039 11.949 46.3592 12.0104C46.3144 12.0719 46.2871 12.1443 46.2801 12.22V21.97C46.2715 22.4934 46.3666 23.0134 46.56 23.4998C46.7534 23.9863 47.0411 24.4296 47.4067 24.8043C47.7723 25.1789 48.2085 25.4775 48.6901 25.6827C49.1717 25.888 49.6891 25.9958 50.2126 26Z" fill="#000D26"/>
<path d="M47.5801 30.9075C46.7734 30.9075 45.9747 30.7486 45.2294 30.4399C44.4842 30.1312 43.807 29.6788 43.2367 29.1084C42.6663 28.538 42.2138 27.8608 41.9051 27.1156C41.5964 26.3704 41.4376 25.5716 41.4376 24.765V11.4075H35.3276C33.0692 11.4075 30.9034 12.3046 29.3065 13.9015C27.7097 15.4983 26.8126 17.6642 26.8126 19.9225V48.36C26.8083 49.4809 27.0254 50.5917 27.4514 51.6285C27.8774 52.6653 28.5039 53.6079 29.295 54.402C30.0861 55.1961 31.0263 55.8263 32.0615 56.2562C33.0967 56.6862 34.2066 56.9075 35.3276 56.9075H52.3901C54.657 56.9075 56.8311 56.0069 58.4341 54.404C60.037 52.801 60.9376 50.6269 60.9376 48.36V30.9075H47.5801ZM36.7576 37.4075H45.3051C45.9515 37.4075 46.5715 37.6643 47.0286 38.1214C47.4858 38.5785 47.7426 39.1985 47.7426 39.845C47.7426 40.4914 47.4858 41.1114 47.0286 41.5685C46.5715 42.0257 45.9515 42.2825 45.3051 42.2825H36.7576C36.1111 42.2825 35.4911 42.0257 35.034 41.5685C34.5769 41.1114 34.3201 40.4914 34.3201 39.845C34.3201 39.1985 34.5769 38.5785 35.034 38.1214C35.4911 37.6643 36.1111 37.4075 36.7576 37.4075ZM50.9926 50.7975H36.7576C36.1111 50.7975 35.4911 50.5407 35.034 50.0835C34.5769 49.6264 34.3201 49.0064 34.3201 48.36C34.3201 47.7135 34.5769 47.0935 35.034 46.6364C35.4911 46.1793 36.1111 45.9225 36.7576 45.9225H50.9926C51.639 45.9225 52.259 46.1793 52.7161 46.6364C53.1733 47.0935 53.4301 47.7135 53.4301 48.36C53.4301 49.0064 53.1733 49.6264 52.7161 50.0835C52.259 50.5407 51.639 50.7975 50.9926 50.7975Z" fill="#000D26"/>
<path d="M21.515 52V22.23C20.1673 22.9496 19.0409 24.0226 18.2565 25.3337C17.4721 26.6448 17.0594 28.1447 17.0625 29.6725V58.11C17.0625 60.3713 17.9586 62.5405 19.5545 64.1425C21.1505 65.7445 23.3162 66.6489 25.5775 66.6575H42.64C44.18 66.6587 45.6915 66.2422 47.0135 65.4524C48.3356 64.6626 49.4187 63.5291 50.1475 62.1725H31.59C30.2575 62.1769 28.9374 61.9161 27.7066 61.4052C26.4759 60.8943 25.3592 60.1437 24.4214 59.1969C23.4837 58.2501 22.7438 57.1262 22.2448 55.8906C21.7459 54.655 21.4978 53.3324 21.515 52Z" fill="#000D26"/>
</svg>
