<svg width="70" height="70" viewBox="0 0 70 70" fill="none" xmlns="http://www.w3.org/2000/svg">
<path d="M46.6666 28.4375C47.2444 28.4299 47.7964 28.1971 48.205 27.7884C48.6136 27.3798 48.8465 26.8278 48.8541 26.25V20.4167C48.8541 18.2894 48.009 16.2493 46.5048 14.7451C45.0006 13.2409 42.9605 12.3958 40.8333 12.3958H37.1874V8.75C37.1874 8.16984 36.957 7.61344 36.5467 7.2032C36.1365 6.79297 35.5801 6.5625 34.9999 6.5625C34.4198 6.5625 33.8634 6.79297 33.4531 7.2032C33.0429 7.61344 32.8124 8.16984 32.8124 8.75V12.3958H29.1666C27.0393 12.3958 24.9992 13.2409 23.495 14.7451C21.9908 16.2493 21.1458 18.2894 21.1458 20.4167V23.3333C21.1502 24.5777 21.4421 25.8043 21.9986 26.9173C22.5552 28.0303 23.3613 28.9998 24.3541 29.75L32.8124 36.0792V53.2292H29.1666C28.1997 53.2292 27.2723 52.8451 26.5886 52.1613C25.9049 51.4776 25.5208 50.5503 25.5208 49.5833V43.75C25.5208 43.1698 25.2903 42.6134 24.88 42.2032C24.4698 41.793 23.9134 41.5625 23.3333 41.5625C22.7531 41.5625 22.1967 41.793 21.7865 42.2032C21.3762 42.6134 21.1458 43.1698 21.1458 43.75V49.5833C21.1458 51.7106 21.9908 53.7507 23.495 55.2549C24.9992 56.7591 27.0393 57.6042 29.1666 57.6042H32.8124V61.25C32.8124 61.8302 33.0429 62.3866 33.4531 62.7968C33.8634 63.207 34.4198 63.4375 34.9999 63.4375C35.5801 63.4375 36.1365 63.207 36.5467 62.7968C36.957 62.3866 37.1874 61.8302 37.1874 61.25V57.6042H40.8333C42.9605 57.6042 45.0006 56.7591 46.5048 55.2549C48.009 53.7507 48.8541 51.7106 48.8541 49.5833V46.6667C48.8496 45.4223 48.5577 44.1957 48.0012 43.0827C47.4447 41.9697 46.6386 41.0002 45.6458 40.25L37.1874 33.9208V16.7708H40.8333C41.8002 16.7708 42.7275 17.1549 43.4112 17.8387C44.095 18.5224 44.4791 19.4497 44.4791 20.4167V26.25C44.4866 26.8278 44.7195 27.3798 45.1281 27.7884C45.5368 28.1971 46.0888 28.4299 46.6666 28.4375ZM43.0208 43.75C43.4703 44.0927 43.8354 44.5337 44.0881 45.0392C44.3409 45.5448 44.4746 46.1015 44.4791 46.6667V49.5833C44.4791 50.5503 44.095 51.4776 43.4112 52.1613C42.7275 52.8451 41.8002 53.2292 40.8333 53.2292H37.1874V39.375L43.0208 43.75ZM32.8124 30.625L26.9791 26.25C26.528 25.9088 26.1616 25.4682 25.9087 24.9623C25.6558 24.4564 25.523 23.8989 25.5208 23.3333V20.4167C25.5208 19.4497 25.9049 18.5224 26.5886 17.8387C27.2723 17.1549 28.1997 16.7708 29.1666 16.7708H32.8124V30.625Z" fill="#000D26"/>
</svg>
