<svg width="78" height="78" viewBox="0 0 78 78" fill="none" xmlns="http://www.w3.org/2000/svg">
<path d="M13 53.625V24.375C13 22.6511 13.6848 20.9978 14.9038 19.7788C16.1228 18.5598 17.7761 17.875 19.5 17.875H33.0525C33.9102 17.8743 34.7596 18.0434 35.5516 18.3725C36.3437 18.7016 37.0628 19.1842 37.6675 19.7925L43.5825 25.7075C44.1872 26.3158 44.9063 26.7984 45.6984 27.1275C46.4904 27.4566 47.3398 27.6257 48.1975 27.625H58.5C60.2239 27.625 61.8772 28.3098 63.0962 29.5288C64.3152 30.7478 65 32.4011 65 34.125V53.625C65 55.3489 64.3152 57.0022 63.0962 58.2212C61.8772 59.4402 60.2239 60.125 58.5 60.125H19.5C17.7761 60.125 16.1228 59.4402 14.9038 58.2212C13.6848 57.0022 13 55.3489 13 53.625Z" fill="#000D26"/>
</svg>
