<svg width="66" height="66" viewBox="0 0 66 66" fill="none" xmlns="http://www.w3.org/2000/svg">
<path d="M21.3125 32.2575C21.3125 32.8045 21.5298 33.3291 21.9166 33.7159C22.3034 34.1027 22.828 34.32 23.375 34.32H37.125V49.5C37.125 51.688 36.2558 53.7865 34.7086 55.3336C33.1615 56.8808 31.063 57.75 28.875 57.75H17.875C15.687 57.75 13.5885 56.8808 12.0414 55.3336C10.4942 53.7865 9.625 51.688 9.625 49.5V16.5C9.625 14.312 10.4942 12.2135 12.0414 10.6664C13.5885 9.11919 15.687 8.25 17.875 8.25H28.875C31.063 8.25 33.1615 9.11919 34.7086 10.6664C36.2558 12.2135 37.125 14.312 37.125 16.5V30.25H23.375C22.8374 30.2498 22.3209 30.4595 21.9357 30.8345C21.5504 31.2095 21.3268 31.7201 21.3125 32.2575Z" fill="#000D26"/>
<path d="M58.2725 33C58.1681 33.2455 58.0189 33.4693 57.8325 33.66L47.9325 43.56C47.5458 43.9462 47.0216 44.1632 46.475 44.1632C45.9284 44.1632 45.4042 43.9462 45.0175 43.56C44.6313 43.1733 44.4143 42.6491 44.4143 42.1025C44.4143 41.5559 44.6313 41.0317 45.0175 40.645L51.3975 34.265H37.125V30.25H51.3975L45.0175 23.815C44.8149 23.6262 44.6523 23.3985 44.5396 23.1455C44.4269 22.8925 44.3663 22.6194 44.3614 22.3424C44.3565 22.0655 44.4074 21.7904 44.5112 21.5336C44.6149 21.2768 44.7693 21.0435 44.9651 20.8477C45.161 20.6518 45.3943 20.4974 45.6511 20.3937C45.9079 20.2899 46.183 20.239 46.4599 20.2439C46.7369 20.2488 47.01 20.3094 47.263 20.4221C47.516 20.5348 47.7437 20.6974 47.9325 20.9L57.75 30.8C57.9364 30.9907 58.0856 31.2146 58.19 31.46C58.3046 31.6986 58.3709 31.9575 58.385 32.2218C58.3992 32.4861 58.3609 32.7506 58.2725 33Z" fill="#000D26"/>
</svg>
