<svg width="72" height="72" viewBox="0 0 72 72" fill="none" xmlns="http://www.w3.org/2000/svg">
<path d="M51 9H21C17.8174 9 14.7652 10.2643 12.5147 12.5147C10.2643 14.7652 9 17.8174 9 21V51C9 54.1826 10.2643 57.2348 12.5147 59.4853C14.7652 61.7357 17.8174 63 21 63H51C54.1826 63 57.2348 61.7357 59.4853 59.4853C61.7357 57.2348 63 54.1826 63 51V21C63 17.8174 61.7357 14.7652 59.4853 12.5147C57.2348 10.2643 54.1826 9 51 9ZM46.5 42.3C46.5 43.4139 46.0575 44.4822 45.2698 45.2698C44.4822 46.0575 43.4139 46.5 42.3 46.5H29.7C29.1484 46.5 28.6023 46.3914 28.0927 46.1803C27.5832 45.9692 27.1202 45.6599 26.7302 45.2698C26.3401 44.8798 26.0308 44.4168 25.8197 43.9073C25.6086 43.3977 25.5 42.8516 25.5 42.3V29.7C25.5 29.1484 25.6086 28.6023 25.8197 28.0927C26.0308 27.5832 26.3401 27.1202 26.7302 26.7302C27.1202 26.3401 27.5832 26.0308 28.0927 25.8197C28.6023 25.6086 29.1484 25.5 29.7 25.5H42.3C42.8516 25.5 43.3977 25.6086 43.9073 25.8197C44.4168 26.0308 44.8798 26.3401 45.2698 26.7302C45.6599 27.1202 45.9692 27.5832 46.1803 28.0927C46.3914 28.6023 46.5 29.1484 46.5 29.7V42.3Z" fill="#000D26"/>
</svg>
