<svg width="88" height="88" viewBox="0 0 88 88" fill="none" xmlns="http://www.w3.org/2000/svg">
<path d="M44 35.97C50.0751 35.97 55 31.0451 55 24.97C55 18.8948 50.0751 13.97 44 13.97C37.9249 13.97 33 18.8948 33 24.97C33 31.0451 37.9249 35.97 44 35.97Z" fill="#000D26"/>
<path d="M17.6367 74.03C17.4874 74.0253 17.3406 73.9912 17.2045 73.9296C17.0684 73.8681 16.9457 73.7803 16.8436 73.6713C16.7414 73.5624 16.6617 73.4343 16.6091 73.2945C16.5564 73.1548 16.5318 73.006 16.5367 72.8567C16.5367 65.5632 19.4341 58.5685 24.5913 53.4113C29.7486 48.254 36.7433 45.3567 44.0367 45.3567C51.3302 45.3567 58.3249 48.254 63.4822 53.4113C68.6394 58.5685 71.5367 65.5632 71.5367 72.8567C71.5416 73.006 71.5171 73.1548 71.4644 73.2945C71.4118 73.4343 71.3321 73.5624 71.2299 73.6713C71.1278 73.7803 71.0051 73.8681 70.869 73.9296C70.7329 73.9912 70.586 74.0253 70.4367 74.03H17.6367Z" fill="#000D26"/>
</svg>
